<svg id="Слой_1" data-name="Слой 1" xmlns="http://www.w3.org/2000/svg" xmlns:xlink="http://www.w3.org/1999/xlink" width="250" height="250" viewBox="0 0 250 250"><defs><style>.cls-1{fill:none;}.cls-2{clip-path:url(#clip-path);}.cls-3{isolation:isolate;font-size:33px;fill:#fffdfd;}.cls-3,.cls-4{font-family:Impact;}.cls-4{font-size:29px;fill:#fff;}</style><clipPath id="clip-path"><circle class="cls-1" cx="124.71" cy="131.64" r="88.32"/></clipPath></defs><g id="Слой_1-2" data-name="Слой 1"><g class="cls-2"><image width="1024" height="1024" transform="translate(31.75 29.28) scale(0.19)" xlink:href="../../Downloads/Whisk_d503e4225226dcea39646cb91620ec8cdr%20%D0%BA%D0%BE%D0%BF%D0%B8%D1%8F.jpg"/></g><text class="cls-3" transform="translate(46.38 227.97)">ОПАСНОСТИ</text></g><text class="cls-4" transform="matrix(0.29, -0.96, 0.96, 0.29, 33.4, 110.22)">Р</text><text class="cls-4" transform="translate(37.31 97) rotate(-64.43)">А</text><text class="cls-4" transform="matrix(0.57, -0.82, 0.82, 0.57, 43.21, 84.4)">Б</text><text class="cls-4" transform="matrix(0.7, -0.72, 0.72, 0.7, 51.82, 71.88)">О</text><text class="cls-4" transform="translate(62.35 61.07) rotate(-37.36)">Т</text><text class="cls-4" transform="matrix(0.9, -0.45, 0.45, 0.9, 71.91, 53.02)">Ы</text><text class="cls-4" transform="translate(93.06 43.22) rotate(-17.96)"> </text><text class="cls-4" transform="translate(97.3 41.51) rotate(-11.81)">П</text><text class="cls-4" transform="translate(112.29 38.32) rotate(-2.63)">О</text><text class="cls-4" transform="translate(127.32 37.56) rotate(6.41)">В</text><text class="cls-4" transform="translate(142.35 38.74) rotate(18)">Ы</text><text class="cls-4" transform="translate(164.2 45.7) rotate(31.96)">Ш</text><text class="cls-4" transform="matrix(0.74, 0.67, -0.67, 0.74, 183.43, 58.23)">Е</text><text class="cls-4" transform="matrix(0.63, 0.77, -0.77, 0.63, 191.93, 65.73)">Н</text><text class="cls-4" transform="translate(201.66 77.51) rotate(60.23)">Н</text><text class="cls-4" transform="translate(209.29 90.72) rotate(69.83)">О</text><text class="cls-4" transform="translate(214.53 104.8) rotate(79.38)">Й</text></svg>