<svg id="Слой_1" data-name="Слой 1" xmlns="http://www.w3.org/2000/svg" width="24" height="24" viewBox="0 0 24 24"><defs><style>.cls-1{fill:#959595;}.cls-2{fill:#fff;}</style></defs><path class="cls-1" d="M14.26,21.82H7.15a2.32,2.32,0,0,1-2.46-2.45V6.61A2.33,2.33,0,0,1,7.16,4.14h10a2.32,2.32,0,0,1,2.44,2.42q0,2.39,0,4.77a1.55,1.55,0,0,1,0,.22l-1.85-.25V6.65c0-.5-.15-.65-.64-.65H7.19c-.48,0-.64.15-.64.62V19.35c0,.46.16.61.62.61h5.36a.43.43,0,0,1,.39.21C13.35,20.73,13.81,21.27,14.26,21.82Z"/><path class="cls-1" d="M22.53,17.16a4.65,4.65,0,1,1-4.64-4.64A4.62,4.62,0,0,1,22.53,17.16Zm-3.41,2-.27,0c-.45.06-.48,0-.42-.41,0-.09,0-.19.05-.29.11-.75.23-1.51.35-2.3l-1.24.19-.25,0c-.06.52-.11,1-.17,1.47A10.37,10.37,0,0,0,17,19a1.76,1.76,0,0,0,.14.79,1,1,0,0,0,1.55.2C18.86,19.75,19,19.48,19.12,19.17Zm0-4.05a.66.66,0,0,0-.72-.67.77.77,0,0,0-.78.77.66.66,0,0,0,.72.67A.77.77,0,0,0,19.11,15.12Z"/><path class="cls-1" d="M3.32,18.7a1.89,1.89,0,0,1-1.85-1.88V3.6A2.11,2.11,0,0,1,3.69,1.35h10A2.24,2.24,0,0,1,16,3s0,.1,0,.19H3.84c-.49,0-.52,0-.52.53v15Z"/><path class="cls-1" d="M12.36,10.18h-3a.92.92,0,0,1-.4-1.74,1.16,1.16,0,0,1,.48-.11h5.93a.93.93,0,0,1,1,.93.92.92,0,0,1-1,.92h-3Z"/><path class="cls-1" d="M15.51,11.86a6,6,0,0,0-2,1.49.46.46,0,0,1-.29.09H9.42a.93.93,0,0,1-1-.95.92.92,0,0,1,1-.91h5.44a3.23,3.23,0,0,1,.67.15Z"/><path class="cls-1" d="M12,17.17H9.36a.93.93,0,1,1,0-1.86h3Z"/><path class="cls-2" d="M19.12,19.17c-.15.31-.26.58-.41.83a1,1,0,0,1-1.55-.2A1.76,1.76,0,0,1,17,19a10.37,10.37,0,0,1,.15-1.1c.06-.47.11-.95.17-1.47l.25,0,1.24-.19c-.12.79-.24,1.55-.35,2.3,0,.1,0,.2-.05.29-.06.44,0,.47.42.41Z"/><path class="cls-2" d="M19.11,15.12a.77.77,0,0,1-.78.77.66.66,0,0,1-.72-.67.77.77,0,0,1,.78-.77A.66.66,0,0,1,19.11,15.12Z"/></svg>