<svg id="Слой_1" data-name="Слой 1" xmlns="http://www.w3.org/2000/svg" xmlns:xlink="http://www.w3.org/1999/xlink" width="250" height="250" viewBox="0 0 250 250"><defs><style>.cls-1{fill:none;}.cls-2{clip-path:url(#clip-path);}.cls-3{isolation:isolate;font-size:33px;fill:#fffdfd;}.cls-3,.cls-4{font-family:Impact;}.cls-4{font-size:29px;fill:#fff;}</style><clipPath id="clip-path"><circle class="cls-1" cx="124.71" cy="131.64" r="88.32"/></clipPath></defs><g id="Слой_1-2" data-name="Слой 1"><g class="cls-2"><image width="1024" height="1024" transform="translate(31.7 37.43) scale(0.18)" xlink:href="../../Downloads/Whisk_02a031605d58effb06b4bcfe19147760dr%20%D0%BA%D0%BE%D0%BF%D0%B8%D1%8F.jpg"/></g><text class="cls-3" transform="translate(37.38 227.97)">ПО ЛЕСТНИЦЕ</text></g><text class="cls-4" transform="matrix(0.71, -0.71, 0.71, 0.71, 52.66, 70.85)">П</text><text class="cls-4" transform="matrix(0.8, -0.6, 0.6, 0.8, 63.58, 60.06)">Е</text><text class="cls-4" transform="matrix(0.87, -0.49, 0.49, 0.87, 72.61, 53.15)">Р</text><text class="cls-4" transform="translate(84.76 46.44) rotate(-21.29)">Е</text><text class="cls-4" transform="matrix(0.98, -0.21, 0.21, 0.98, 95.17, 42.04)">Д</text><text class="cls-4" transform="translate(112.79 38.25) rotate(-2.27)">В</text><text class="cls-4" transform="matrix(0.99, 0.12, -0.12, 0.99, 128, 37.6)">И</text><text class="cls-4" transform="translate(142.75 38.97) rotate(17.48)">Ж</text><text class="cls-4" transform="translate(162.3 45.47) rotate(27.23)">Е</text><text class="cls-4" transform="translate(172.46 50.48) rotate(35.42)">Н</text><text class="cls-4" transform="matrix(0.71, 0.7, -0.7, 0.71, 184.95, 59.3)">И</text><text class="cls-4" transform="translate(195.55 69.9) rotate(52.86)">Е</text></svg>